<?xml version="1.0" encoding="UTF-8"?>
<svg version="1.1" viewBox="0 0 960 1040" width="240" height="260" xmlns="http://www.w3.org/2000/svg">
<path transform="translate(30,247)" d="m0 0 7 1 16 8 58 32 24 13 23 13 24 13 74 41 24 13 23 13 24 13 45 25 24 13 23 13 24 13 18 10 17 10 3 3v19l-4 101-14 345-2 48-1 12-5 6-5-1-29-17-27-16-29-17-20-12-86-51-81-48-81-48-32-19-15-9-32-19-3-3-1-4-3-1-1-5 9-295 5-169 1-29 2-11z" fill="#343D9A"/>
<path transform="translate(929,260)" d="m0 0 4 1 8 4v13l-8 174-12 262-3 61-4 7-5 5-25 14-17 10-52 30-28 16-24 14-52 30-28 16-52 30-24 14-56 32-24 14-26 15-8 5-4-1-3-4-4-1v-19l3-66 6-127 7-151 7-148 1-11 4-6 9-6 85-47 29-16 22-12 25-14 29-16 24-13 21-12 24-13 18-10 56-31 58-32 16-9z" fill="#343D9A"/>
<path transform="translate(478,11)" d="m0 0 10 4 45 22 42 21 23 11 58 29 23 11 54 27 23 11 56 28 23 11 78 39 7 5 1 2v7l-8 6-24 13-23 13-26 14-18 10-29 16-24 13-23 13-26 14-18 10-29 16-24 13-23 13-24 13-23 13-28 15-23 13-24 13-3 1-13-5-24-13-23-13-30-16-47-26-24-13-29-16-24-13-23-13-28-15-23-13-19-10-23-13-19-10-22-12-29-16-26-14-21-12-2-3 2-5-4-2v-2l50-25 23-11 22-11 23-11 47-23 70-34 21-10 16-8 39-19 17-8 16-8 51-25 24-11z" fill="#343D9A"/>
<path transform="translate(30,247)" d="m0 0 7 1 16 8 58 32 24 13 23 13 24 13 74 41 24 13 23 13 24 13 45 25 24 13 23 13 24 13 18 10 17 10 3 3v19l-4 101-14 345-2 48-1 12-5 6-5-1-29-17-27-16-29-17-20-12-86-51-81-48-81-48-32-19-15-9-32-19-3-3-1-4-3-1-1-5 9-295 5-169 1-29 2-11zm7 16-1 10-3 99-2 75-5 163-3 111-1 20v15l8 6 26 15 15 9 17 10 35 21 22 13 27 16 20 12 22 13 66 39 20 12 26 15 28 17 29 17 15 9 44 26 4 3 3-1 2-38 2-44 3-80 3-77 3-72 4-95 3-62v-41l-17-10-24-13-23-13-28-15-27-15-26-14-23-13-28-15-47-26-26-14-18-10-22-12-27-15-24-13-18-10-24-13-22-12-6-3z" fill="#040507"/>
<path transform="translate(929,260)" d="m0 0 4 1 8 4v13l-8 174-12 262-3 61-4 7-5 5-25 14-17 10-52 30-28 16-24 14-52 30-28 16-52 30-24 14-56 32-24 14-26 15-8 5-4-1-3-4-4-1v-19l3-66 6-127 7-151 7-148 1-11 4-6 9-6 85-47 29-16 22-12 25-14 29-16 24-13 21-12 24-13 18-10 56-31 58-32 16-9zm-3 16-28 15-24 13-23 13-26 14-23 13-28 15-23 13-28 15-16 9-24 13-23 13-24 13-43 24-24 13-27 15-24 14-1 4-11 236-7 152-3 65-2 41v12l4-1 17-10 26-15 21-12 26-15 24-14 25-14 17-10 23-13 49-28 24-14 23-13 24-14 25-14 24-14 23-13 26-15 10-7 2-7 6-134 7-148 4-89 5-99v-21z" fill="#040507"/>
<path transform="translate(478,11)" d="m0 0 10 4 45 22 42 21 23 11 58 29 23 11 54 27 23 11 56 28 23 11 78 39 7 5 1 2v7l-8 6-24 13-23 13-26 14-18 10-29 16-24 13-23 13-26 14-18 10-29 16-24 13-23 13-24 13-23 13-28 15-23 13-24 13-3 1-13-5-24-13-23-13-30-16-47-26-24-13-29-16-24-13-23-13-28-15-23-13-19-10-23-13-19-10-22-12-29-16-26-14-21-12-2-3 2-5-4-2v-2l50-25 23-11 22-11 23-11 47-23 70-34 21-10 16-8 39-19 17-8 16-8 51-25 24-11zm-6 11-21 11-23 11-40 20-23 11-41 20-25 12-36 18-23 11-32 16-23 11-28 14-23 11-24 12-23 11-19 9-1 2 25 13 23 13 28 15 22 12 29 16 24 13 23 13 28 15 29 16 24 13 18 10 44 24 29 16 24 13 29 16 24 13 9 5 5-1 23-13 24-13 23-13 26-14 23-13 28-15 18-10 22-12 27-15 29-16 24-13 27-15 83-46 24-13v-2l-82-41-23-11-100-50-23-11-104-52-23-11-60-30-13-6z" fill="#040507"/>
<path transform="translate(337,824)" d="m0 0h12l12 4 11 7 12 12 12 18 7 16 4 16 1 6v13l-3 12-4 7-4 5-9 5-4 1h-7l-13-4-10-6-10-9-7-7-10-16-7-16-4-17v-20l3-10 5-8 8-7z" fill="#010101"/>
<path transform="translate(61,660)" d="m0 0h12l12 4 10 7 10 9 9 12 8 14 6 16 3 15v17l-3 12-7 9-5 4-8 3h-8l-12-4-11-6-13-12-10-14-8-16-5-15-1-6v-23l3-10 6-9 9-6z" fill="#010101"/>
<path transform="translate(206,580)" d="m0 0h11l12 4 11 7 13 13 9 14 8 16 4 13 2 12v13l-3 12-6 9-7 6-9 3-10-1-11-4-13-9-9-9-9-13-8-15-5-15-2-11v-16l3-11 6-10 8-6z" fill="#010101"/>
<path transform="translate(74,338)" d="m0 0h9l13 4 11 7 12 12 9 13 8 16 4 11 3 13v19l-3 10-6 9-6 5-7 3h-13l-12-5-11-8-11-11-10-15-7-15-4-14-1-9v-18l3-10 6-9 8-6z" fill="#010101"/>
<path transform="translate(352,497)" d="m0 0h12l12 4 10 7 9 8 10 13 9 16 5 14 3 14v20l-4 11-6 8-9 6-4 1h-7l-13-4-12-7-12-12-7-9-9-16-6-17-2-11v-18l4-13 6-8 6-5z" fill="#010101"/>
<path transform="translate(610,831)" d="m0 0 9 1 9 6 5 8 3 10v13l-4 17-6 15-7 12-9 12-14 14-14 8-11 3h-7l-10-5-7-8-3-11v-13l4-18 7-17 6-10 9-12 11-11 15-10 9-3z" fill="#010101"/>
<path transform="translate(751,593)" d="m0 0 11 1 8 6 6 10 2 8v11l-3 16-5 13-8 15-8 11-9 10-11 9-14 7-5 1h-10l-10-5-6-8-3-9v-14l3-15 6-16 8-14 10-13 9-9 13-9 11-5z" fill="#010101"/>
<path transform="translate(884,364)" d="m0 0 10 2 6 4 5 6 4 12v13l-3 15-6 16-6 11-10 14-13 13-14 9-9 3h-13l-9-5-6-8-3-12v-9l3-15 6-16 7-13 10-14 11-11 11-8 8-4z" fill="#010101"/>
<path transform="translate(215,177)" d="m0 0h21l18 3 12 4 12 6 9 9 4 9v8l-5 8-9 8-12 6-20 5-6 1h-26l-18-4-14-5-10-6-6-5-3-5-1-4v-9l3-7 7-7 10-6 16-6z" fill="#010101"/>
<path transform="translate(441,63)" d="m0 0h30l16 3 15 6 9 6 7 7 3 6v11l-6 9-9 7-10 5-15 4-5 1h-39l-16-4-12-5-10-7-6-7-2-4v-10l5-8 9-8 14-7 15-4z" fill="#010101"/>
<path transform="translate(354,255)" d="m0 0h25l17 3 16 6 11 8 6 8 2 5v8l-5 8-9 8-12 6-14 4-5 1h-37l-16-3-15-6-11-8-5-7-1-3v-10l4-8 8-7 16-8 15-4z" fill="#010101"/>
<path transform="translate(585,135)" d="m0 0h24l18 3 15 6 9 6 5 5 4 5 2 6-1 9-3 5-5 5-8 6-12 5-17 4h-38l-14-3-15-6-11-8-5-7-1-3v-10l3-6 9-9 16-8 16-4z" fill="#010101"/>
<path transform="translate(501,331)" d="m0 0h20l18 3 17 6 11 8 7 9 2 6-1 7-6 9-10 8-12 5-16 4h-40l-17-4-13-6-8-6-6-7-1-2v-13l4-7 9-8 12-6 13-4z" fill="#010101"/>
<path transform="translate(738,208)" d="m0 0 23 1 13 3 17 7 11 10 4 9v7l-3 7-8 8-10 6-18 6-8 1h-33l-13-2-17-6-11-7-7-8-2-5v-8l4-8 8-8 14-7 12-4 7-1z" fill="#010101"/>
</svg>